<svg width="34" height="34" viewBox="0 0 34 34" fill="none" xmlns="http://www.w3.org/2000/svg">
<rect x="0.5" y="0.5" width="33" height="32.9753" rx="6.5" stroke="black"/>
<path d="M8.50002 14.9287V11.2661C8.50002 10.1615 9.39545 9.26611 10.5 9.26611H22.4375C23.5421 9.26611 24.4375 10.1615 24.4375 11.2661V22.7094C24.4375 23.814 23.5421 24.7094 22.4375 24.7094H10.5C9.39545 24.7094 8.50002 23.814 8.50002 22.7094V14.9287ZM8.50002 14.9287H13.8125" stroke="black"/>
<path d="M19.6875 16.9878C19.6875 18.6871 18.2613 20.0913 16.4687 20.0913C14.6761 20.0913 13.25 18.6871 13.25 16.9878C13.25 15.2886 14.6761 13.8844 16.4687 13.8844C18.2613 13.8844 19.6875 15.2886 19.6875 16.9878Z" stroke="black"/>
<path d="M24.9688 14.9286C24.5438 14.9286 20.8958 14.9286 19.125 14.9286" stroke="black"/>
<path d="M21.8125 12.3548C21.8125 12.6325 21.5756 12.8843 21.25 12.8843C20.9244 12.8843 20.6875 12.6325 20.6875 12.3548C20.6875 12.077 20.9244 11.8252 21.25 11.8252C21.5756 11.8252 21.8125 12.077 21.8125 12.3548Z" stroke="black"/>
<path d="M13.2813 11.3252H11.1563V12.8695H13.2813V11.3252Z" fill="#C4C4C4" stroke="black"/>
</svg>
