<svg width="19" height="18" viewBox="0 0 19 18" fill="none" xmlns="http://www.w3.org/2000/svg">
<rect x="0.808105" y="0.5" width="17.6919" height="16.4627" rx="6.5" stroke="#DDDDDD"/>
<path d="M4.98108 7.67314V6.76269C4.98108 5.65813 5.87651 4.7627 6.98108 4.7627H11.7429C12.8475 4.7627 13.7429 5.65812 13.7429 6.76269V10.7003C13.7429 11.8049 12.8475 12.7003 11.7429 12.7003H6.98108C5.87651 12.7003 4.98108 11.8049 4.98108 10.7003V7.67314ZM4.98108 7.67314H7.90169" stroke="#DDDDDD"/>
<path d="M10.9064 8.73138C10.9064 9.43279 10.2625 10.0835 9.36196 10.0835C8.46137 10.0835 7.81754 9.43279 7.81754 8.73138C7.81754 8.02996 8.46137 7.37927 9.36196 7.37927C10.2625 7.37927 10.9064 8.02996 10.9064 8.73138Z" stroke="#DDDDDD"/>
<path d="M14.035 7.67297C13.8013 7.67297 11.7958 7.67297 10.8223 7.67297" stroke="#DDDDDD"/>
<mask id="path-5-inside-1" fill="white">
<ellipse cx="11.9905" cy="6.35022" rx="0.584122" ry="0.529172"/>
</mask>
<path d="M11.5746 6.35022C11.5746 6.18625 11.6501 6.05764 11.7322 5.98329C11.8126 5.91041 11.9067 5.87939 11.9905 5.87939V7.87939C12.7702 7.87939 13.5746 7.28542 13.5746 6.35022H11.5746ZM11.9905 5.87939C12.0744 5.87939 12.1684 5.91041 12.2489 5.98329C12.3309 6.05764 12.4064 6.18625 12.4064 6.35022H10.4064C10.4064 7.28542 11.2109 7.87939 11.9905 7.87939V5.87939ZM12.4064 6.35022C12.4064 6.51418 12.3309 6.6428 12.2489 6.71714C12.1684 6.79003 12.0744 6.82104 11.9905 6.82104V4.82104C11.2109 4.82104 10.4064 5.41502 10.4064 6.35022H12.4064ZM11.9905 6.82104C11.9067 6.82104 11.8126 6.79003 11.7322 6.71714C11.6501 6.6428 11.5746 6.51418 11.5746 6.35022H13.5746C13.5746 5.41502 12.7702 4.82104 11.9905 4.82104V6.82104Z" fill="#DDDDDD" mask="url(#path-5-inside-1)"/>
<path d="M7.60962 5.82104H6.44138V6.6148H7.60962V5.82104Z" fill="#C4C4C4" stroke="#DDDDDD"/>
</svg>
